<?xml version="1.0" encoding="utf-8" ?><svg xmlns="http://www.w3.org/2000/svg" xmlns:xlink="http://www.w3.org/1999/xlink" width="1024" height="1024" viewBox="0 0 1024 1024"><path fill="#4A251E" transform="scale(2 2)" d="M251.908 222.751C301.426 216.658 329.128 294.267 273.977 317.071C298.124 318.959 319.468 334.418 339.372 346.756C345.037 340.556 349.61 333.124 354.727 326.474C360.751 318.646 370.121 307.934 374.755 299.502C372.688 273.211 409.561 264.39 419.4 289.532C423.176 299.181 419.344 311.86 410.08 317.091C404.139 320.217 403.978 322.25 400.492 327.97L391.791 342.545C381.35 360.389 370.205 387.71 348.913 390.387C336.068 392.002 325.454 384.182 314.251 379.125L314.303 427.142C314.336 437.847 310.945 446.54 303.384 454.286C291.39 466.573 278.905 464.473 263.125 464.448L242.156 464.469C227.891 464.478 219.051 465.535 207.669 454.835C195.212 443.125 197.381 430.86 197.116 415.347C196.918 403.704 197.438 391.605 197.12 379.902C193.439 381.107 187.163 384.2 183.632 386.075C166.353 395.249 145.408 389.32 137.618 370.846C136.693 368.65 134.354 364.957 133.081 362.828L117.301 336.36C114.072 330.94 111.28 326.748 108.347 321.079C91.9202 312.493 82.8112 293.847 99.5886 280.625C113.621 269.566 134.915 276.806 137.504 294.907C137.79 296.91 137.742 299.419 138.832 301.229C149.395 316.487 160.503 331.36 171.945 345.971C196.279 333.402 205.003 321.007 236.953 317.071C191.944 301.314 196.481 230.589 251.908 222.751Z"/><path fill="#D7AA9A" transform="scale(2 2)" d="M376.816 308.549C382.626 316.924 386.495 319.644 396.62 321.079L376.84 354.228C370.882 364.443 366.885 375.198 356.378 381.002C342.996 388.395 332.127 379.823 320.222 374.146C304.619 366.707 307.437 370.477 307.448 385.359L307.462 410.487C307.472 440.023 306.246 457.707 272.61 457.639L240.729 457.626C205.672 457.724 203.654 443.598 203.675 412.274L203.666 382.859C203.687 369.104 204.545 368.147 194.134 373.202C183.868 378.292 173.371 385.499 161.449 382.741C146.261 378.96 141.337 363.956 133.964 351.035C128.297 341.104 121.706 331.114 116.373 321.079C126.01 319.964 130.245 316.57 135.463 308.549C142.148 316.337 167.182 355.539 171.446 353.908C178.884 351.065 185.304 345.454 192.184 341.461C224.68 320.3 265.658 315.013 301.141 331.982C312.092 337.219 322.317 344.3 332.716 350.535C337.281 353.272 340.43 356.606 344.254 351.563C355.049 337.326 366.451 323.063 376.816 308.549Z"/><path fill="#E7CFC4" transform="scale(2 2)" d="M252.774 230.051C276.026 228.551 296.054 246.269 297.401 269.531C298.747 292.793 280.897 312.704 257.627 313.897C234.572 315.079 214.886 297.431 213.552 274.384C212.218 251.338 229.737 231.536 252.774 230.051Z"/><path fill="#E7CFC4" transform="scale(2 2)" d="M395.789 281.291C404.831 280.237 413.015 286.709 414.076 295.749C415.136 304.79 408.671 312.98 399.632 314.047C390.582 315.116 382.381 308.642 381.319 299.592C380.258 290.541 386.738 282.345 395.789 281.291Z"/><path fill="#E7CFC4" transform="scale(2 2)" d="M112.897 281.925C121.913 280.989 129.987 287.524 130.951 296.536C131.915 305.549 125.405 313.643 116.396 314.635C107.346 315.631 99.209 309.087 98.2408 300.035C97.2726 290.983 103.842 282.866 112.897 281.925Z"/><path fill="#4A251E" transform="scale(2 2)" d="M101.142 133.634C140.022 130.524 174.059 159.526 177.16 198.406C180.262 237.286 151.253 271.317 112.372 274.41C73.5028 277.502 39.4845 248.504 36.3839 209.636C33.2834 170.767 62.2744 136.743 101.142 133.634ZM150.863 157.643C133.945 141.519 109.584 135.899 87.3116 142.98C65.0396 150.062 48.3982 168.72 43.899 191.654C39.3998 214.587 47.7582 238.15 65.7037 253.121C92.2145 275.239 131.49 272.344 154.471 246.578C177.452 220.812 175.856 181.463 150.863 157.643Z"/><path fill="#A9B859" transform="scale(2 2)" d="M65.7037 253.121C47.7582 238.15 39.3998 214.587 43.899 191.654C48.3982 168.72 65.0396 150.062 87.3116 142.98C109.584 135.899 133.945 141.519 150.863 157.643C175.856 181.463 177.452 220.812 154.471 246.578C131.49 272.344 92.2145 275.239 65.7037 253.121ZM72.5616 217.041C89.9059 235.925 102.585 224.983 106.211 228.892C109.287 232.407 108.905 238.364 108.347 242.577C114.163 238.711 117.562 235.437 121.976 230.052C130.266 217.894 126.01 211.669 144.325 217.041C141.727 209.261 137.035 201.046 129.246 197.513C118.962 192.848 120.178 184.144 127.962 179.119C111.854 171.501 101.641 185.606 93.3953 181.884C88.8134 179.816 88.6041 173.201 87.1672 171.884C68.7113 195.916 91.8983 204.115 86.6764 210.595C83.0532 215.09 78.2383 216.894 72.5616 217.041Z"/><path fill="#4A251E" transform="scale(2 2)" d="M80.7859 207.748C62.8332 189.98 85.4627 158.634 92.8853 159.072C96.9842 159.313 94.1204 165.986 94.1255 168.245C93.7906 179.319 97.3911 176.996 103.529 173.88C111.611 169.777 132.059 169.478 138.362 175.962C140.469 178.13 134.096 181.476 132.993 182.414C123.489 190.496 130.123 190.072 135.857 193.943C145.536 200.477 150.502 211.128 150.976 222.751C150.875 224.479 150.573 225.204 149.858 226.78C145.772 227.724 141.74 221.376 133.544 221.233C121.024 254.164 88.2083 256.471 98.3611 246.271C101.845 242.77 102.821 239.792 102.677 234.923C86.3894 236.35 76.0536 231.927 65.5881 218.453C64.346 216.724 61.1028 212.992 61.6554 210.686C63.2182 204.164 70.2325 214.994 80.7859 207.748ZM72.5616 217.041C89.9059 235.925 102.585 224.983 106.211 228.892C109.287 232.407 108.905 238.364 108.347 242.577C114.163 238.711 117.562 235.437 121.976 230.052C130.266 217.894 126.01 211.669 144.325 217.041C141.727 209.261 137.035 201.046 129.246 197.513C118.962 192.848 120.178 184.144 127.962 179.119C111.854 171.501 101.641 185.606 93.3953 181.884C88.8134 179.816 88.6041 173.201 87.1672 171.884C68.7113 195.916 91.8983 204.115 86.6764 210.595C83.0532 215.09 78.2383 216.894 72.5616 217.041Z"/><path fill="#97A155" transform="scale(2 2)" d="M150.863 157.643C175.856 181.463 177.452 220.812 154.471 246.578C131.49 272.344 92.2145 275.239 65.7037 253.121C67.2754 253.112 69.1822 253.926 70.6717 254.439C97.095 263.538 127.388 256.625 145.017 234.211C146.823 231.916 148.775 229.539 149.858 226.78C150.573 225.204 150.875 224.479 150.976 222.751L151.276 223.043C151.337 222.986 151.398 222.928 151.46 222.871C160.255 205.18 160.078 184.162 153.258 165.838C151.724 161.716 151.106 161.267 150.863 157.643Z"/><path fill="#4A251E" transform="scale(2 2)" d="M399.64 133.589C438.424 130.596 472.271 159.656 475.18 198.446C478.09 237.236 448.956 271.02 410.16 273.846C371.482 276.663 337.824 247.638 334.923 208.966C332.023 170.295 360.975 136.574 399.64 133.589ZM452.367 202.71C452.292 183.639 440.337 166.635 422.416 160.112C404.495 153.588 384.408 158.926 372.09 173.486C359.772 188.046 357.836 208.741 367.24 225.333C376.643 241.926 395.392 250.897 414.212 247.811C436.283 244.191 452.454 225.075 452.367 202.71Z"/><path fill="#D7AA9A" transform="scale(2 2)" d="M371.492 257.661C351.88 245.446 340.44 223.551 341.613 200.475C342.786 177.399 356.388 156.777 377.138 146.614C397.888 136.45 422.519 138.346 441.47 151.566C469.735 171.283 477.141 209.934 458.166 238.703C439.19 267.472 400.746 275.881 371.492 257.661ZM452.367 202.71C452.292 183.639 440.337 166.635 422.416 160.112C404.495 153.588 384.408 158.926 372.09 173.486C359.772 188.046 357.836 208.741 367.24 225.333C376.643 241.926 395.392 250.897 414.212 247.811C436.283 244.191 452.454 225.075 452.367 202.71Z"/><path fill="#4A251E" transform="scale(2 2)" d="M414.212 247.811C395.392 250.897 376.643 241.926 367.24 225.333C357.836 208.741 359.772 188.046 372.09 173.486C384.408 158.926 404.495 153.588 422.416 160.112C440.337 166.635 452.292 183.639 452.367 202.71C452.454 225.075 436.283 244.191 414.212 247.811ZM391.264 184.567C395.582 180.108 402.833 178.78 408.817 179.119C414.587 179.721 418.565 181.098 422.702 185.237C426.243 180.824 430.53 177.233 434.661 173.44C424.449 166.646 418.201 162.374 405.287 162.751C393.816 162.8 387.479 167.176 378.939 173.44C381.976 176.002 388.638 181.777 391.264 184.567ZM391.264 222.17C388.105 224.819 382.992 229.52 380.187 232.58C383.227 235.061 386.364 237.415 389.998 238.985C406.675 246.379 420.191 243.185 434.661 232.58C431.97 230.12 425.528 222.7 423.457 221.233C414.424 229.969 401.047 229.279 391.264 222.17ZM437.398 177.446C433.831 181.043 430.342 184.715 427.17 188.668C430.225 200.712 434.574 202.069 427.17 217.041C430.378 220.387 432.604 223.068 435.336 226.78C436.224 227.636 436.64 228.173 437.398 229.133C448.689 212.564 451.202 194.331 437.624 177.549C437.549 177.514 437.473 177.48 437.398 177.446ZM375.532 177.446C364.503 193.702 363.312 213.969 376.816 229.133C377.871 227.95 379.082 226.525 380.187 225.419C382.51 223.008 384.994 220.514 387.26 218.069C379.581 206.678 381.2 199.226 387.26 187.844C385.06 185.817 377.654 178.753 375.532 177.446Z"/><path fill="#E6AB55" transform="scale(2 2)" d="M403.593 184.647C413.82 182.93 423.506 189.819 425.239 200.043C426.972 210.268 420.097 219.964 409.875 221.712C399.632 223.464 389.91 216.571 388.174 206.325C386.437 196.079 393.345 186.368 403.593 184.647Z"/><path fill="#BE7D68" transform="scale(2 2)" d="M441.47 151.566C469.735 171.283 477.141 209.934 458.166 238.703C439.19 267.472 400.746 275.881 371.492 257.661C372.927 257.433 378.95 257.607 380.867 257.567C386.547 257.448 412.172 254.332 414.212 247.811C436.283 244.191 452.454 225.075 452.367 202.71L452.699 204.686L452.91 204.664L453.046 204.343C459.32 189.209 455.321 171.727 446.949 158.246C445.633 156.128 442.096 153.699 441.47 151.566Z"/><path fill="#4A251E" transform="scale(2 2)" d="M251.214 43.18C289.296 40.425 322.396 69.0745 325.13 107.158C327.865 145.241 299.197 178.326 261.112 181.039C223.056 183.75 190.003 155.11 187.271 117.056C184.539 79.0017 213.162 45.9329 251.214 43.18Z"/><path fill="#A9B859" transform="scale(2 2)" d="M254.148 50.0124C262.503 48.5272 274.183 52.6651 282.015 55.4556C281.739 59.8361 282.102 64.1406 282.12 68.5315C282.27 104.613 256.17 134.458 221.33 142.202C214.702 143.484 209.216 143.238 202.571 143.206C197.853 133.392 194.487 124.825 194.245 113.682C193.504 79.3937 219.88 50.9956 254.148 50.0124Z"/><path fill="#E7CFC4" transform="scale(2 2)" d="M286.398 57.8488C333.314 83.7912 326.74 157.155 273.298 172.09C250.395 178.49 223.356 170.915 208.71 151.623L207.196 150.264L212.077 150.264C213.438 150.002 215.117 149.959 216.52 149.818C259.207 145.521 289.786 107.941 288.777 65.6801C287.917 62.7591 287.746 60.7608 286.398 57.8488Z"/><path fill="#E5E5E4" transform="scale(2 2)" d="M288.777 65.6801L289.015 65.2739C293.671 68.1601 301.317 84.1361 302.626 89.4371C307.07 107.436 297.875 128.948 284.788 141.596C267.03 157.994 241.815 163.659 218.959 155.532C217.346 154.959 213.382 153.632 212.077 152.646C210.835 151.969 210.088 151.837 208.71 151.623L207.196 150.264L212.077 150.264C213.438 150.002 215.117 149.959 216.52 149.818C259.207 145.521 289.786 107.941 288.777 65.6801Z"/><path fill="white" transform="scale(2 2)" d="M207.196 150.264L212.077 150.264C216.153 150.547 215.994 152.19 212.077 152.646C210.835 151.969 210.088 151.837 208.71 151.623L207.196 150.264Z"/></svg>